<?xml version="1.0" encoding="UTF-8"?>
<svg id="_图层_1" data-name="图层 1" xmlns="http://www.w3.org/2000/svg" viewBox="0 0 160 160">
  <defs>
    <style>
      .cls-1 {
        fill: #fff;
      }

      .cls-2 {
        fill: none;
      }

      .cls-3 {
        fill: #f97d16;
      }
    </style>
  </defs>
  <path class="cls-1" d="M47.87,0h63.29c26.96,0,48.84,21.88,48.84,48.84v63.29c0,26.42-21.45,47.87-47.87,47.87H47.87c-26.42,0-47.87-21.45-47.87-47.87V47.87C0,21.45,21.45,0,47.87,0Z"/>
  <path class="cls-3" d="M139.79,46.1l-58.58-31.76c-.75-.41-1.67-.41-2.42,0l-15.31,8.3c-1.2.64-2.12,1.71-2.58,3l-2.26,6.29c-.44,1.23-1.3,2.26-2.43,2.91l-5.06,2.95c-1.93,1.13-4.34.99-6.12-.35l-.87-.65c-1.74-1.3-4.06-1.47-5.97-.44l-17.98,9.75c-.85.46-1.36,1.29-1.36,2.21v63.38c0,.91.52,1.75,1.36,2.21l6.14,3.33c.67.36,1.47.36,2.13-.03l5.35-3.05c.69-.39,1.52-.38,2.2,0l20.74,12.09c1.13.66,1.96,1.73,2.3,2.98l1.29,4.7c.36,1.3,1.24,2.4,2.44,3.06l15.99,8.67c.75.41,1.67.41,2.42,0l58.58-31.76c.85-.46,1.36-1.29,1.36-2.21v-63.38c0-.91-.52-1.75-1.36-2.21ZM66.62,66.93c0,.44-.19.87-.52,1.17l-11.68,10.7c-.7.64-.69,1.75.03,2.37l11.61,10.09c.36.3.55.74.55,1.2v12.26c0,.88-.71,1.59-1.59,1.59h-12.39c-.88,0-1.59-.71-1.59-1.59v-7.85c0-.48-.22-.94-.6-1.24l-12.31-9.78c-.38-.3-.6-.76-.6-1.24v-9.22c0-.48.21-.93.58-1.24l12.34-10.02c.37-.3.58-.75.58-1.24v-7.62c0-.88.71-1.59,1.59-1.59h12.39c.88,0,1.59.71,1.59,1.59v11.65ZM91.39,80.32l-5.04,24.71c-.15.74-.8,1.28-1.56,1.28h-11.79c-1.01,0-1.76-.92-1.56-1.91l4.91-23.84c.04-.21.04-.43,0-.63l-4.92-24.33c-.19-.98.56-1.9,1.56-1.9h11.8c.75,0,1.41.53,1.56,1.28l5.04,24.71c.04.21.04.43,0,.64ZM122.46,84.6c0,.48-.22.94-.6,1.24l-12.31,9.78c-.38.3-.6.76-.6,1.24v7.85c0,.88-.71,1.59-1.59,1.59h-12.39c-.88,0-1.59-.71-1.59-1.59v-12.26c0-.46.19-.9.55-1.2l11.61-10.09c.72-.62.74-1.73.03-2.37l-11.68-10.7c-.33-.3-.52-.73-.52-1.17v-11.65c0-.88.71-1.59,1.59-1.59h12.39c.88,0,1.59.71,1.59,1.59v7.62c0,.48.21.93.58,1.24l12.34,10.02c.37.3.58.75.58,1.24v9.22Z"/>
  <path class="cls-2" d="M54.42,78.8c-.7.64-.69,1.75.03,2.37l11.61,10.09c.36.3.55.74.55,1.2v12.26c0,.88-.71,1.59-1.59,1.59h-12.39c-.88,0-1.59-.71-1.59-1.59v-7.85c0-.48-.22-.94-.6-1.24l-12.31-9.78c-.38-.3-.6-.76-.6-1.24v-9.22c0-.48.21-.93.58-1.24l12.34-10.02c.37-.3.58-.75.58-1.24v-7.62c0-.88.71-1.59,1.59-1.59h12.39c.88,0,1.59.71,1.59,1.59v11.65c0,.44-.19.87-.52,1.17l-11.68,10.7Z"/>
  <path class="cls-2" d="M91.39,80.32l-5.04,24.71c-.15.74-.8,1.28-1.56,1.28h-11.79c-1.01,0-1.76-.92-1.56-1.91l4.91-23.84c.04-.21.04-.43,0-.63l-4.92-24.33c-.19-.98.56-1.9,1.56-1.9h11.8c.75,0,1.41.53,1.56,1.28l5.04,24.71c.04.21.04.43,0,.64Z"/>
  <path class="cls-2" d="M122.46,75.39v9.22c0,.48-.22.94-.6,1.24l-12.31,9.78c-.38.3-.6.76-.6,1.24v7.85c0,.88-.71,1.59-1.59,1.59h-12.39c-.88,0-1.59-.71-1.59-1.59v-12.26c0-.46.19-.9.55-1.2l11.61-10.09c.72-.62.74-1.73.03-2.37l-11.68-10.7c-.33-.3-.52-.73-.52-1.17v-11.65c0-.88.71-1.59,1.59-1.59h12.39c.88,0,1.59.71,1.59,1.59v7.62c0,.48.21.93.58,1.24l12.34,10.02c.37.3.58.75.58,1.24Z"/>
</svg>